<svg width="32" height="32" viewBox="0 0 32 32" fill="none" xmlns="http://www.w3.org/2000/svg">
<rect width="32" height="32" rx="16" fill="#009598"/>
<path d="M12.5625 11.1875H23.5625M12.5625 16H23.5625M12.5625 20.8125H23.5625M8.4375 11.1875H8.44392V11.1948H8.4375V11.1875ZM8.78125 11.1875C8.78125 11.2787 8.74503 11.3661 8.68057 11.4306C8.6161 11.495 8.52867 11.5313 8.4375 11.5313C8.34633 11.5313 8.2589 11.495 8.19443 11.4306C8.12997 11.3661 8.09375 11.2787 8.09375 11.1875C8.09375 11.0963 8.12997 11.0089 8.19443 10.9444C8.2589 10.88 8.34633 10.8438 8.4375 10.8438C8.52867 10.8438 8.6161 10.88 8.68057 10.9444C8.74503 11.0089 8.78125 11.0963 8.78125 11.1875ZM8.4375 16H8.44392V16.0073H8.4375V16ZM8.78125 16C8.78125 16.0912 8.74503 16.1786 8.68057 16.2431C8.6161 16.3075 8.52867 16.3438 8.4375 16.3438C8.34633 16.3438 8.2589 16.3075 8.19443 16.2431C8.12997 16.1786 8.09375 16.0912 8.09375 16C8.09375 15.9088 8.12997 15.8214 8.19443 15.7569C8.2589 15.6925 8.34633 15.6563 8.4375 15.6563C8.52867 15.6563 8.6161 15.6925 8.68057 15.7569C8.74503 15.8214 8.78125 15.9088 8.78125 16ZM8.4375 20.8125H8.44392V20.8198H8.4375V20.8125ZM8.78125 20.8125C8.78125 20.9037 8.74503 20.9911 8.68057 21.0556C8.6161 21.12 8.52867 21.1563 8.4375 21.1563C8.34633 21.1563 8.2589 21.12 8.19443 21.0556C8.12997 20.9911 8.09375 20.9037 8.09375 20.8125C8.09375 20.7213 8.12997 20.6339 8.19443 20.5694C8.2589 20.505 8.34633 20.4688 8.4375 20.4688C8.52867 20.4688 8.6161 20.505 8.68057 20.5694C8.74503 20.6339 8.78125 20.7213 8.78125 20.8125Z" stroke="white" stroke-width="1.5" stroke-linecap="round" stroke-linejoin="round"/>
</svg>
