<svg width="32" height="32" viewBox="0 0 32 32" fill="none" xmlns="http://www.w3.org/2000/svg">
<path d="M8.4375 10.5C8.4375 9.95299 8.6548 9.42839 9.04159 9.04159C9.42839 8.6548 9.95299 8.4375 10.5 8.4375H12.5625C13.1095 8.4375 13.6341 8.6548 14.0209 9.04159C14.4077 9.42839 14.625 9.95299 14.625 10.5V12.5625C14.625 13.1095 14.4077 13.6341 14.0209 14.0209C13.6341 14.4077 13.1095 14.625 12.5625 14.625H10.5C9.95299 14.625 9.42839 14.4077 9.04159 14.0209C8.6548 13.6341 8.4375 13.1095 8.4375 12.5625V10.5ZM8.4375 19.4375C8.4375 18.8905 8.6548 18.3659 9.04159 17.9791C9.42839 17.5923 9.95299 17.375 10.5 17.375H12.5625C13.1095 17.375 13.6341 17.5923 14.0209 17.9791C14.4077 18.3659 14.625 18.8905 14.625 19.4375V21.5C14.625 22.047 14.4077 22.5716 14.0209 22.9584C13.6341 23.3452 13.1095 23.5625 12.5625 23.5625H10.5C9.95299 23.5625 9.42839 23.3452 9.04159 22.9584C8.6548 22.5716 8.4375 22.047 8.4375 21.5V19.4375ZM17.375 10.5C17.375 9.95299 17.5923 9.42839 17.9791 9.04159C18.3659 8.6548 18.8905 8.4375 19.4375 8.4375H21.5C22.047 8.4375 22.5716 8.6548 22.9584 9.04159C23.3452 9.42839 23.5625 9.95299 23.5625 10.5V12.5625C23.5625 13.1095 23.3452 13.6341 22.9584 14.0209C22.5716 14.4077 22.047 14.625 21.5 14.625H19.4375C18.8905 14.625 18.3659 14.4077 17.9791 14.0209C17.5923 13.6341 17.375 13.1095 17.375 12.5625V10.5ZM17.375 19.4375C17.375 18.8905 17.5923 18.3659 17.9791 17.9791C18.3659 17.5923 18.8905 17.375 19.4375 17.375H21.5C22.047 17.375 22.5716 17.5923 22.9584 17.9791C23.3452 18.3659 23.5625 18.8905 23.5625 19.4375V21.5C23.5625 22.047 23.3452 22.5716 22.9584 22.9584C22.5716 23.3452 22.047 23.5625 21.5 23.5625H19.4375C18.8905 23.5625 18.3659 23.3452 17.9791 22.9584C17.5923 22.5716 17.375 22.047 17.375 21.5V19.4375Z" stroke="#11111C" stroke-width="1.5" stroke-linecap="round" stroke-linejoin="round"/>
</svg>
