<svg width="20" height="20" viewBox="0 0 20 20" fill="none" xmlns="http://www.w3.org/2000/svg">
<g clip-path="url(#clip0_214_4790)">
<path d="M8.74984 17.0833L17.0832 8.74996C17.4726 8.36836 17.7825 7.91334 17.9949 7.41123C18.2074 6.90912 18.3182 6.36987 18.3209 5.82467C18.3237 5.27946 18.2183 4.73913 18.0109 4.23489C17.8036 3.73066 17.4983 3.27254 17.1128 2.88702C16.7273 2.5015 16.2691 2.19623 15.7649 1.98886C15.2607 1.78149 14.7203 1.67613 14.1751 1.67889C13.6299 1.68164 13.0907 1.79245 12.5886 2.0049C12.0865 2.21735 11.6314 2.52723 11.2498 2.91663L2.91651 11.25C2.52711 11.6316 2.21723 12.0866 2.00478 12.5887C1.79232 13.0908 1.68152 13.6301 1.67876 14.1753C1.67601 14.7205 1.78136 15.2608 1.98873 15.765C2.1961 16.2693 2.50137 16.7274 2.8869 17.1129C3.27242 17.4984 3.73054 17.8037 4.23477 18.0111C4.739 18.2184 5.27934 18.3238 5.82454 18.321C6.36975 18.3183 6.90899 18.2075 7.41111 17.995C7.91322 17.7826 8.36823 17.4727 8.74984 17.0833Z" stroke="#57575F" stroke-width="1.5" stroke-linecap="round" stroke-linejoin="round"/>
<path d="M7.0835 7.08337L12.9168 12.9167" stroke="#57575F" stroke-width="1.5" stroke-linecap="round" stroke-linejoin="round"/>
</g>
<defs>
<clipPath id="clip0_214_4790">
<rect width="20" height="20" fill="white"/>
</clipPath>
</defs>
</svg>
